<svg width="185" height="185" viewBox="0 0 185 185" fill="none" xmlns="http://www.w3.org/2000/svg">
<path d="M81.6667 126H106.667V134.333H81.6667V126ZM114.608 99.8C118.9 94.775 123.333 89.5792 123.333 80.1667C123.333 64.0875 110.246 51 94.1667 51C78.0875 51 65 64.0875 65 80.1667C65 89.6875 69.4458 94.8667 73.7542 99.875C75.2458 101.617 76.7917 103.421 78.2708 105.496C78.8708 106.354 79.8542 109.646 80.7333 113.5H77.4333V121.833H110.9V113.5H107.608C108.496 109.638 109.483 106.338 110.079 105.479C111.546 103.383 113.104 101.563 114.608 99.8Z" fill="black"/>
<circle cx="92.5" cy="92.5" r="85.5" stroke="#CA8A04" stroke-width="14"/>
</svg>
