<svg width="185" height="185" viewBox="0 0 185 185" fill="none" xmlns="http://www.w3.org/2000/svg">
<path d="M129.476 73.3528C129.751 73.3528 129.751 73.3528 130.025 73.3528L125.901 57.4057C124.801 52.7296 119.85 49.9797 115.45 51.3547L54.4045 67.5792C49.7296 68.6791 46.9797 73.629 48.3547 78.0289L53.5795 97.8283V86.0036C53.5795 78.8563 59.3543 73.0815 66.5041 73.0815H129.476V73.3528Z" fill="black"/>
<path d="M129.477 77.7529H66.2286C61.5537 77.7529 57.7051 81.604 57.7051 86.2777V126.424C57.7051 131.101 61.555 134.949 66.2286 134.949H129.477C134.152 134.949 138 131.098 138 126.424V86.2801C138.003 81.6028 134.152 77.7529 129.477 77.7529ZM132.228 126.428C132.228 128.079 130.854 129.176 129.479 129.176H66.2311C64.5811 129.176 63.4824 127.803 63.4824 126.426V116.254H132.504V126.426L132.228 126.428ZM132.228 96.4536H63.4799V86.2801C63.4799 84.629 64.8549 83.5302 66.2286 83.5302H129.477C131.128 83.5302 132.225 84.9052 132.225 86.2801L132.228 96.4536Z" fill="black"/>
<circle cx="92.5" cy="92.5" r="85.5" stroke="#CA8A04" stroke-width="14"/>
</svg>
