<svg width="185" height="185" viewBox="0 0 185 185" fill="none" xmlns="http://www.w3.org/2000/svg">
<path d="M65.35 136.7H123.35C125.752 136.7 127.7 134.752 127.7 132.35V83.05C127.7 80.6476 125.752 78.7 123.35 78.7H119V65.65C119 52.058 107.942 41 94.35 41C80.758 41 69.7 52.058 69.7 65.65V78.7H65.35C62.9476 78.7 61 80.6476 61 83.05V132.35C61 134.752 62.9476 136.7 65.35 136.7ZM106.669 104.613L94.3445 116.938C93.4951 117.788 92.3818 118.213 91.2687 118.213C90.1557 118.213 89.0421 117.788 88.193 116.938L82.0305 110.776C80.3317 109.077 80.3317 106.323 82.0305 104.624C83.729 102.925 86.4835 102.925 88.1823 104.624L91.269 107.71L100.518 98.4615C102.217 96.7627 104.971 96.7627 106.67 98.4615C108.369 100.161 108.369 102.914 106.669 104.613ZM78.4 65.65C78.4 56.8552 85.5552 49.7 94.35 49.7C103.145 49.7 110.3 56.8552 110.3 65.65V78.7H78.4V65.65Z" fill="black"/>
<circle cx="92.5" cy="92.5" r="85.5" stroke="#CA8A04" stroke-width="14"/>
</svg>
